<svg width="12" height="11" viewBox="0 0 12 11" fill="none" xmlns="http://www.w3.org/2000/svg">
<path d="M5.1418 1.07031L5.65742 0.554688C5.8918 0.34375 6.24336 0.34375 6.4543 0.554688L11.0246 5.10156C11.2355 5.33594 11.2355 5.6875 11.0246 5.89844L6.4543 10.4688C6.24336 10.6797 5.8918 10.6797 5.65742 10.4688L5.1418 9.95312C4.93086 9.71875 4.93086 9.36719 5.1418 9.13281L7.97773 6.4375H1.25117C0.923047 6.4375 0.688672 6.20312 0.688672 5.875V5.125C0.688672 4.82031 0.923047 4.5625 1.25117 4.5625H7.97773L5.1418 1.89062C4.93086 1.65625 4.90742 1.30469 5.1418 1.07031Z" fill="white"/>
</svg>
