<svg width="47" height="46" viewBox="0 0 47 46" fill="none" xmlns="http://www.w3.org/2000/svg">
<rect x="0.720703" width="46" height="46" rx="23" fill="white" fill-opacity="0.1"/>
<path d="M23.902 19.4062C25.8707 19.4062 27.4957 21.0312 27.4957 23C27.4957 25 25.8707 26.5938 23.902 26.5938C21.902 26.5938 20.3082 25 20.3082 23C20.3082 21.0312 21.902 19.4062 23.902 19.4062ZM23.902 25.3438C25.1832 25.3438 26.2145 24.3125 26.2145 23C26.2145 21.7188 25.1832 20.6875 23.902 20.6875C22.5895 20.6875 21.5582 21.7188 21.5582 23C21.5582 24.3125 22.6207 25.3438 23.902 25.3438ZM28.4645 19.2812C28.4645 19.75 28.0895 20.125 27.6207 20.125C27.152 20.125 26.777 19.75 26.777 19.2812C26.777 18.8125 27.152 18.4375 27.6207 18.4375C28.0895 18.4375 28.4645 18.8125 28.4645 19.2812ZM30.8395 20.125C30.902 21.2812 30.902 24.75 30.8395 25.9062C30.777 27.0312 30.527 28 29.7145 28.8438C28.902 29.6562 27.902 29.9062 26.777 29.9688C25.6207 30.0312 22.152 30.0312 20.9957 29.9688C19.8707 29.9062 18.902 29.6562 18.0582 28.8438C17.2457 28 16.9957 27.0312 16.9332 25.9062C16.8707 24.75 16.8707 21.2812 16.9332 20.125C16.9957 19 17.2457 18 18.0582 17.1875C18.902 16.375 19.8707 16.125 20.9957 16.0625C22.152 16 25.6207 16 26.777 16.0625C27.902 16.125 28.902 16.375 29.7145 17.1875C30.527 18 30.777 19 30.8395 20.125ZM29.3395 27.125C29.7145 26.2188 29.6207 24.0312 29.6207 23C29.6207 22 29.7145 19.8125 29.3395 18.875C29.0895 18.2812 28.6207 17.7812 28.027 17.5625C27.0895 17.1875 24.902 17.2812 23.902 17.2812C22.8707 17.2812 20.6832 17.1875 19.777 17.5625C19.152 17.8125 18.6832 18.2812 18.4332 18.875C18.0582 19.8125 18.152 22 18.152 23C18.152 24.0312 18.0582 26.2188 18.4332 27.125C18.6832 27.75 19.152 28.2188 19.777 28.4688C20.6832 28.8438 22.8707 28.75 23.902 28.75C24.902 28.75 27.0895 28.8438 28.027 28.4688C28.6207 28.2188 29.1207 27.75 29.3395 27.125Z" fill="white"/>
</svg>
